<svg xmlns="http://www.w3.org/2000/svg" viewBox="0 0 642 646" width="642" height="646"><path d="M 422,117 354,109 339,106 331,107 331,113 356,138 345,162 343,164 305,163 292,165 267,173 250,182 231,196 212,217 198,241 191,261 187,282 187,312 191,332 197,349 207,368 217,382 243,410 251,428 254,448 259,460 265,467 275,473 270,478 268,483 268,490 272,496 268,503 269,513 273,518 277,520 290,520 298,531 310,538 327,539 334,537 346,528 352,516 363,515 370,511 373,506 373,497 370,492 373,486 373,476 370,472 381,462 386,453 390,429 394,418 403,404 421,386 437,364 444,350 450,333 455,303 453,273 445,245 429,215 445,183 450,182 460,184 461,205 457,210 457,215 460,219 460,223 456,238 472,239 473,235 469,223 469,219 472,216 472,210 468,205 469,186 485,186 486,181 Z M 342,517 340,522 335,527 327,531 312,530 305,526 301,521 302,519 337,516 Z M 365,499 365,503 360,507 295,512 280,512 276,508 277,504 283,500 310,499 350,495 361,495 Z M 365,479 365,483 360,487 296,492 280,492 276,488 277,483 284,480 361,475 Z M 289,174 306,171 336,171 359,176 382,186 401,199 418,216 430,233 442,261 446,279 447,304 445,320 439,341 424,369 392,405 384,421 379,449 376,455 368,463 362,466 284,467 272,462 263,450 259,426 250,406 245,399 228,382 214,364 205,347 198,327 195,311 196,276 203,250 212,232 224,215 244,196 269,181 Z M 363,145 394,175 437,181 423,208 408,194 393,183 372,172 354,167 352,165 Z M 347,117 353,116 419,125 470,176 466,177 397,167 Z" fill="#FFFFFF" fill-rule="evenodd"/><path d="M 316,393 310,393 310,412 Z M 288,370 286,373 286,378 291,382 298,383 298,372 294,369 Z M 206,292 205,301 207,318 217,348 229,367 252,391 261,404 270,426 272,443 275,450 279,454 284,456 298,456 299,393 291,393 282,389 276,381 275,373 278,366 283,361 293,358 300,360 305,364 309,372 309,378 311,383 321,383 331,364 351,336 344,331 336,320 332,307 332,299 324,295 318,295 310,298 307,316 301,327 294,334 282,341 264,343 255,341 243,334 236,327 231,319 228,310 228,303 Z M 371,272 366,272 355,277 349,283 344,292 343,309 347,318 354,326 358,325 364,311 362,308 362,297 367,291 370,290 370,283 362,286 357,291 354,303 352,305 347,304 346,298 352,285 360,278 370,275 Z M 258,273 249,278 241,288 238,299 240,313 244,320 256,330 262,332 275,332 286,327 296,315 299,302 296,289 293,284 281,274 275,272 Z M 267,290 273,290 278,295 280,301 277,312 271,316 265,314 261,308 261,298 Z M 270,275 272,277 272,280 268,283 263,283 257,286 252,291 249,298 249,302 246,305 243,305 241,299 246,286 252,280 259,276 Z M 370,257 362,231 354,216 344,203 331,191 317,183 316,181 304,182 280,188 263,196 247,207 231,223 215,249 209,266 207,281 229,292 233,281 245,268 258,262 273,261 284,264 293,269 301,277 307,288 315,285 327,285 335,288 337,282 346,271 357,264 369,261 Z M 283,201 287,205 287,208 283,212 268,219 259,226 243,245 236,261 232,265 228,265 225,262 226,255 232,242 242,228 254,216 265,208 277,202 Z" fill="#40E0E6" fill-rule="evenodd"/><path d="M 319,394 315,402 310,423 310,456 332,456 332,395 Z M 353,370 347,369 343,373 343,383 347,383 354,380 356,374 Z M 436,293 414,303 413,313 405,328 393,338 379,343 367,343 352,338 327,374 324,383 331,383 332,372 334,367 340,361 347,358 352,358 359,361 364,366 367,374 366,381 361,388 354,392 343,394 343,456 358,456 366,451 369,445 372,424 378,408 392,388 410,370 418,359 426,344 434,320 436,307 Z M 379,272 373,272 373,275 377,277 377,280 373,283 372,289 379,295 381,299 380,309 373,316 367,315 365,313 359,326 359,329 367,332 379,332 389,328 397,321 403,308 403,297 400,288 393,279 Z M 320,181 340,196 357,217 367,238 372,261 384,262 395,267 405,276 413,291 435,281 432,265 426,249 416,231 401,213 383,199 358,187 343,183 Z" fill="#F04AD4" fill-rule="evenodd"/><path d="M 341,518 304,520 302,521 307,526 313,529 324,530 334,526 Z M 339,519 333,526 322,530 312,528 304,522 307,520 320,520 321,519 333,519 334,518 Z M 364,500 362,497 357,496 356,497 343,497 342,498 331,498 330,499 281,502 278,504 278,509 281,511 288,511 289,510 302,510 303,509 329,508 330,507 342,507 343,506 357,506 362,505 Z M 363,499 362,504 354,506 327,507 326,508 300,509 299,510 287,510 286,511 282,511 278,508 279,504 282,502 332,499 333,498 344,498 345,497 361,497 Z M 364,480 362,477 359,476 358,477 345,477 344,478 281,482 278,484 278,489 281,491 289,491 290,490 303,490 304,489 316,489 317,488 329,488 330,487 342,487 343,486 356,486 363,484 Z M 363,479 363,482 360,485 354,485 353,486 287,490 286,491 282,491 278,488 278,485 282,482 334,479 335,478 347,478 348,477 361,477 Z M 308,392 308,458 333,458 333,392 Z M 309,392 332,392 333,393 333,456 331,458 311,458 308,456 308,393 Z M 354,368 347,367 343,369 341,373 341,384 342,385 348,385 356,381 357,371 Z M 353,368 357,373 357,378 352,383 342,384 341,383 342,372 346,368 349,367 Z M 286,369 284,373 285,380 288,383 291,384 301,384 301,376 299,370 294,367 290,367 Z M 289,368 293,367 299,372 300,374 300,383 299,384 292,384 285,379 284,374 Z M 370,291 366,293 364,296 363,306 367,313 374,314 378,310 379,307 379,298 376,293 373,291 Z M 371,291 378,297 379,300 378,308 372,314 368,313 365,310 363,304 365,296 Z M 268,291 263,296 262,306 264,311 267,314 273,314 277,310 278,307 278,298 275,293 272,291 Z M 270,291 277,297 278,300 278,306 276,310 271,314 267,313 264,310 262,304 264,296 Z M 204,290 205,317 208,330 213,344 228,369 244,385 257,401 262,410 268,426 272,449 277,455 285,458 300,458 301,457 301,392 287,390 279,383 277,379 277,372 282,364 290,360 294,360 301,363 306,369 309,385 316,385 317,384 318,385 332,385 334,379 334,373 336,368 341,363 348,360 354,361 362,367 365,375 363,382 354,390 341,392 341,420 340,421 340,456 341,458 358,458 361,457 368,452 371,446 371,440 375,421 384,402 395,388 412,371 423,355 433,332 438,306 438,292 437,291 433,291 416,300 414,300 412,302 412,308 410,315 406,323 398,332 383,340 368,341 360,339 352,335 343,327 336,315 334,308 334,298 327,294 314,294 308,297 307,310 305,316 300,325 292,333 279,340 263,341 255,339 249,336 237,325 231,314 229,301 206,290 Z M 204,308 204,292 207,291 224,300 226,300 229,303 230,312 234,322 245,334 254,339 261,341 276,341 289,336 301,325 306,315 308,306 308,299 311,296 316,294 326,294 333,298 334,300 334,310 337,319 342,327 348,333 361,340 381,341 392,337 404,327 409,319 412,310 412,303 414,301 435,291 437,292 438,296 437,313 434,327 429,341 421,357 411,371 393,389 382,404 377,414 373,426 371,444 367,452 360,457 353,457 352,458 344,458 341,456 341,393 355,390 362,385 365,379 365,373 362,366 358,362 353,360 343,361 335,368 332,384 309,384 308,383 307,370 305,366 299,361 288,360 280,365 277,371 277,380 279,384 284,389 300,393 300,409 301,410 300,411 300,416 301,417 301,455 299,457 282,457 274,451 271,445 268,424 259,403 247,387 229,369 216,349 210,335 Z M 366,270 356,274 346,284 342,292 341,308 344,317 352,327 363,333 379,334 390,330 399,322 405,309 405,296 401,285 393,276 380,270 Z M 364,271 378,270 390,275 400,285 404,294 405,307 402,316 393,327 382,333 370,334 362,332 356,329 346,319 342,310 341,299 343,291 346,285 352,278 Z M 262,270 253,273 246,278 241,284 237,294 237,310 243,322 250,329 263,334 274,334 285,330 294,322 300,309 300,295 294,282 285,274 274,270 Z M 264,270 277,271 288,277 297,288 300,297 299,311 293,322 282,331 271,334 260,333 250,328 241,318 237,308 237,296 239,289 242,284 251,275 Z M 205,276 205,283 209,284 226,293 230,293 236,280 246,270 255,265 262,263 275,263 284,266 291,270 300,279 305,288 305,290 308,290 311,288 319,286 327,287 333,290 336,290 343,277 355,267 366,263 378,263 386,265 399,273 406,281 411,293 415,293 420,291 422,289 424,289 437,282 435,268 428,248 420,233 407,216 390,201 379,194 364,187 352,183 337,180 306,180 286,184 270,190 250,202 230,221 219,237 211,254 Z M 205,278 210,258 218,240 231,221 250,203 264,194 276,188 288,184 308,180 334,180 354,184 365,188 381,196 395,206 411,222 425,243 433,263 437,281 431,285 412,293 408,283 398,271 388,265 381,263 364,263 352,268 342,277 335,289 332,289 325,286 317,286 312,287 307,290 300,278 292,270 283,265 276,263 260,263 249,267 238,276 229,293 207,283 205,281 Z M 291,175 270,182 246,196 232,208 223,218 214,231 203,254 197,279 196,305 197,306 197,314 198,315 199,325 206,346 215,363 226,378 245,397 252,407 261,428 264,449 267,455 273,461 282,465 360,465 369,461 375,454 378,447 381,426 387,411 400,393 418,375 427,362 435,347 441,330 445,310 445,283 444,282 443,271 436,248 428,232 422,223 405,204 388,191 366,180 339,173 311,172 310,173 302,173 301,174 Z M 293,175 303,173 312,173 313,172 337,173 362,179 385,190 398,199 407,207 424,227 435,247 443,272 444,284 445,285 445,308 444,309 443,321 437,341 431,354 417,375 399,393 388,408 381,425 378,446 375,453 369,460 358,465 283,465 274,461 268,455 265,450 260,423 254,409 245,396 228,379 217,365 207,347 201,331 198,319 197,303 196,302 198,275 205,250 216,229 224,218 242,200 250,194 267,184 Z M 362,148 354,165 368,169 389,179 405,190 423,207 435,182 393,176 364,147 Z M 362,150 364,148 394,177 401,177 402,178 433,182 434,184 424,203 422,205 405,189 385,176 372,170 357,166 355,164 Z M 348,117 398,166 468,175 418,126 372,121 371,120 357,119 Z M 352,119 354,118 355,119 401,124 409,126 417,126 464,173 463,174 458,174 457,173 443,172 428,169 399,166 Z M 424,116 391,112 390,111 383,111 382,110 375,110 367,108 360,108 352,106 345,106 337,104 331,105 329,107 330,115 354,139 344,160 342,162 307,161 306,162 293,163 272,169 251,179 228,196 214,211 203,227 195,243 189,261 186,276 186,283 185,284 185,309 190,335 198,356 213,380 236,404 242,412 250,431 252,448 258,462 267,471 271,473 266,483 266,489 269,495 269,498 266,504 266,509 268,515 274,521 289,522 293,528 300,535 310,540 327,541 334,539 343,534 347,530 354,517 366,516 373,510 375,506 375,497 372,491 375,486 375,477 373,472 382,464 387,456 390,445 391,433 394,423 404,406 421,389 438,366 446,350 452,333 456,312 455,274 451,256 447,245 437,225 431,217 431,215 447,184 458,185 459,186 459,204 455,209 455,215 458,220 458,224 455,232 455,240 456,241 473,241 475,239 475,236 471,220 474,216 474,210 473,207 470,204 470,188 471,187 485,188 488,185 488,180 Z M 423,116 469,161 488,182 488,184 484,188 478,188 470,186 470,205 474,211 473,217 470,220 474,234 474,239 471,241 458,241 455,239 455,234 459,221 455,214 455,211 459,205 459,185 448,184 447,183 430,216 438,228 446,244 454,270 455,283 456,284 456,310 451,335 445,351 436,368 426,382 403,406 395,419 391,431 388,452 381,464 372,472 375,478 375,484 371,491 375,498 375,504 373,509 368,514 364,516 353,517 349,526 339,536 333,539 325,541 312,540 301,535 293,527 290,522 278,522 274,520 268,514 267,502 270,496 267,491 266,486 268,479 273,473 267,470 257,459 252,446 252,440 249,426 242,411 237,404 213,379 203,364 195,348 188,326 186,308 185,307 185,287 186,286 186,278 190,259 196,242 202,230 215,211 235,191 249,181 273,169 295,163 309,162 310,161 332,161 333,162 343,163 355,139 329,112 329,108 332,105 335,104 343,106 350,106 358,108 365,108 373,110 380,110 381,111 388,111 389,112 396,112 397,113 Z" fill="#000000" fill-rule="evenodd"/><path d="M 375,276 365,277 353,286 348,297 349,304 352,303 356,290 366,282 375,281 Z M 271,278 266,276 253,281 247,287 244,293 243,303 247,303 248,296 256,285 261,282 269,281 Z M 284,203 278,203 266,209 255,217 242,230 233,243 226,260 229,264 234,262 242,244 252,231 269,217 284,210 Z" fill="#FFFFFF" fill-rule="evenodd"/></svg>